<?xml version="1.0" encoding="UTF-8"?>
<svg id="Layer_2" data-name="Layer 2" xmlns="http://www.w3.org/2000/svg" viewBox="0 0 169.01 74.38">
  <defs>
    <style>
      .cls-1 {
        fill: #231f20;
        stroke-width: 0px;
      }
    </style>
  </defs>
  <g id="Layer_1-2" data-name="Layer 1">
    <g>
      <g>
        <path class="cls-1" d="M26.92,0v7.64H10.4v10.88h15.54v7.64h-15.54v20.08H1.08V0h25.84Z"/>
        <path class="cls-1" d="M56.9,7.64h-16.51v10.88h15.54v7.64h-15.54v12.43h17.16v7.64h-26.49V0h25.84v7.64Z"/>
        <path class="cls-1" d="M62.21,0h9.33v38.6h16.51v7.64h-25.84V0Z"/>
        <path class="cls-1" d="M92.65,0h9.33v46.24h-9.33V0Z"/>
        <path class="cls-1" d="M125.23,0c2.37,0,4.37.4,5.99,1.2s2.92,1.85,3.92,3.14c.99,1.3,1.71,2.78,2.14,4.44.43,1.66.65,3.36.65,5.08,0,2.38-.36,4.45-1.07,6.22-.71,1.77-1.71,3.22-2.98,4.34-1.27,1.12-2.82,1.96-4.63,2.53-1.81.56-3.82.84-6.02.84h-4.99v18.46h-9.33V0h16.32ZM122.38,20.92c1.86,0,3.36-.56,4.5-1.68,1.14-1.12,1.72-2.87,1.72-5.25s-.5-4.1-1.49-5.31-2.66-1.81-4.99-1.81h-3.89v14.05h4.14Z"/>
        <path class="cls-1" d="M168.36,7.64h-16.51v10.88h15.54v7.64h-15.54v12.43h17.16v7.64h-26.49V0h25.84v7.64Z"/>
      </g>
      <g>
        <path class="cls-1" d="M4.79,68.81c.25.48.58.88,1,1.18s.9.52,1.47.67c.56.14,1.14.22,1.74.22.41,0,.84-.03,1.31-.1.46-.07.9-.2,1.31-.39.41-.19.74-.46,1.01-.8.27-.34.41-.77.41-1.29,0-.56-.18-1.02-.54-1.36-.36-.35-.83-.64-1.41-.87-.58-.23-1.24-.43-1.97-.61-.74-.17-1.48-.37-2.23-.58-.77-.19-1.53-.43-2.26-.71s-1.39-.64-1.97-1.09c-.58-.45-1.05-1-1.41-1.67-.36-.67-.54-1.47-.54-2.42,0-1.06.23-1.99.68-2.77.45-.78,1.05-1.44,1.78-1.96.73-.52,1.57-.91,2.5-1.16.93-.25,1.86-.38,2.79-.38,1.08,0,2.12.12,3.12.36s1.88.63,2.65,1.17,1.39,1.23,1.84,2.07c.46.84.68,1.86.68,3.06h-4.41c-.04-.62-.17-1.13-.39-1.54s-.52-.72-.88-.96-.79-.4-1.26-.49c-.47-.1-.99-.14-1.55-.14-.37,0-.74.04-1.1.12-.37.08-.7.21-1,.41s-.55.44-.74.73-.29.66-.29,1.1c0,.41.08.74.23.99.15.25.46.48.91.7.45.21,1.08.43,1.89.64.8.21,1.85.48,3.15.81.39.08.92.22,1.61.42s1.37.53,2.05.97c.68.45,1.26,1.04,1.75,1.78.49.75.74,1.7.74,2.86,0,.95-.18,1.83-.55,2.64s-.91,1.51-1.64,2.1c-.73.59-1.62,1.05-2.7,1.38-1.07.33-2.32.49-3.73.49-1.14,0-2.25-.14-3.32-.42s-2.02-.72-2.84-1.32-1.47-1.36-1.96-2.29c-.48-.93-.72-2.03-.7-3.31h4.41c0,.7.13,1.29.38,1.77Z"/>
        <path class="cls-1" d="M29.88,53.2l7.75,20.71h-4.73l-1.57-4.61h-7.75l-1.62,4.61h-4.58l7.83-20.71h4.67ZM30.14,65.91l-2.61-7.6h-.06l-2.7,7.6h5.37Z"/>
        <path class="cls-1" d="M50.01,53.2c.93,0,1.76.15,2.51.45.75.3,1.38.71,1.92,1.23.53.52.94,1.13,1.22,1.81.28.69.42,1.43.42,2.22,0,1.22-.26,2.27-.77,3.16s-1.35,1.57-2.51,2.03v.06c.56.16,1.02.39,1.39.71s.67.7.9,1.13c.23.43.4.91.51,1.44s.18,1.04.22,1.57c.02.33.04.72.06,1.16.02.44.05.9.1,1.36.05.46.13.9.23,1.32.11.42.27.77.48,1.06h-4.55c-.25-.66-.41-1.44-.46-2.35s-.15-1.78-.26-2.61c-.16-1.08-.48-1.88-.99-2.38-.5-.5-1.33-.75-2.47-.75h-4.55v8.09h-4.55v-20.71h11.17ZM48.39,62.58c1.04,0,1.83-.23,2.35-.7.52-.46.78-1.22.78-2.26s-.26-1.74-.78-2.19c-.52-.45-1.3-.68-2.35-.68h-4.99v5.83h4.99Z"/>
        <path class="cls-1" d="M65.62,53.2l4.84,14.24h.06l4.58-14.24h6.41v20.71h-4.26v-14.68h-.06l-5.08,14.68h-3.51l-5.08-14.53h-.06v14.53h-4.26v-20.71h6.41Z"/>
        <path class="cls-1" d="M89.5,53.2v20.71h-4.55v-20.71h4.55Z"/>
        <path class="cls-1" d="M108.41,53.2v3.83h-10.94v4.44h10.04v3.54h-10.04v5.08h11.17v3.83h-15.72v-20.71h15.49Z"/>
        <path class="cls-1" d="M115.66,53.2l8.64,13.9h.06v-13.9h4.26v20.71h-4.55l-8.62-13.87h-.06v13.87h-4.26v-20.71h4.53Z"/>
        <path class="cls-1" d="M130.43,57.03v-3.83h16.97v3.83h-6.21v16.88h-4.55v-16.88h-6.21Z"/>
        <path class="cls-1" d="M149,59.34c.46-1.32,1.13-2.48,2-3.47.87-.99,1.94-1.76,3.21-2.32s2.69-.84,4.28-.84,3.04.28,4.29.84c1.26.56,2.32,1.33,3.19,2.32s1.54,2.14,2,3.47c.46,1.33.7,2.76.7,4.31s-.23,2.92-.7,4.22-1.13,2.44-2,3.41c-.87.97-1.93,1.73-3.19,2.28-1.26.55-2.69.83-4.29.83s-3.01-.28-4.28-.83c-1.27-.55-2.33-1.31-3.21-2.28-.87-.97-1.54-2.1-2-3.41-.46-1.31-.7-2.71-.7-4.22s.23-2.98.7-4.31ZM153.16,66.19c.2.82.53,1.56.97,2.22.44.66,1.02,1.18,1.74,1.58s1.59.59,2.61.59,1.89-.2,2.61-.59,1.3-.92,1.74-1.58c.44-.66.77-1.4.97-2.22s.3-1.67.3-2.54-.1-1.79-.3-2.64c-.2-.85-.53-1.61-.97-2.28-.45-.67-1.03-1.2-1.74-1.59s-1.59-.59-2.61-.59-1.9.2-2.61.59-1.3.93-1.74,1.59c-.45.67-.77,1.43-.97,2.28-.2.85-.3,1.73-.3,2.64s.1,1.72.3,2.54Z"/>
      </g>
    </g>
  </g>
</svg>