<?xml version="1.0" encoding="UTF-8"?>
<svg id="Layer_2" data-name="Layer 2" xmlns="http://www.w3.org/2000/svg" xmlns:xlink="http://www.w3.org/1999/xlink" viewBox="0 0 368.92 412.34">
  <defs>
    <style>
      .cls-1 {
        fill: #78b5f9;
      }

      .cls-1, .cls-2, .cls-3, .cls-4, .cls-5, .cls-6, .cls-7, .cls-8, .cls-9, .cls-10, .cls-11, .cls-12, .cls-13, .cls-14, .cls-15, .cls-16, .cls-17, .cls-18, .cls-19, .cls-20, .cls-21, .cls-22, .cls-23, .cls-24, .cls-25, .cls-26, .cls-27, .cls-28, .cls-29, .cls-30, .cls-31, .cls-32, .cls-33, .cls-34, .cls-35, .cls-36, .cls-37 {
        stroke-width: 0px;
      }

      .cls-2 {
        fill: #7783fc;
      }

      .cls-3 {
        fill: #768afb;
      }

      .cls-4 {
        fill: #78bcf9;
      }

      .cls-5 {
        fill: #7651fe;
      }

      .cls-6 {
        fill: #7691fa;
      }

      .cls-7 {
        fill: #767bfc;
      }

      .cls-8 {
        fill: #78cbf8;
      }

      .cls-9 {
        fill: #764aff;
      }

      .cls-10 {
        fill: url(#linear-gradient);
      }

      .cls-11 {
        fill: #766dfd;
      }

      .cls-12 {
        fill: #7791fb;
      }

      .cls-13 {
        fill: #7674fc;
      }

      .cls-14 {
        fill: #77c3f8;
      }

      .cls-15 {
        fill: #7666fd;
      }

      .cls-16 {
        fill: #77b5f9;
      }

      .cls-17 {
        fill: #765ffd;
      }

      .cls-18 {
        fill: #7683fb;
      }

      .cls-19 {
        fill: #77a0fa;
      }

      .cls-20 {
        fill: #7675fc;
      }

      .cls-21 {
        fill: #78d2f7;
      }

      .cls-22 {
        fill: #000;
      }

      .cls-23 {
        fill: #77bcf8;
      }

      .cls-24 {
        fill: #766dfc;
      }

      .cls-25 {
        fill: #7658fe;
      }

      .cls-26 {
        fill: #767cfc;
      }

      .cls-27 {
        fill: #77a7fa;
      }

      .cls-28 {
        fill: #78d9f7;
      }

      .cls-29 {
        fill: #77a7f9;
      }

      .cls-30 {
        fill: #78caf8;
      }

      .cls-31 {
        fill: #7798fa;
      }

      .cls-32 {
        fill: #77aef9;
      }

      .cls-33 {
        fill: #779ffa;
      }

      .cls-34 {
        fill: #78c3f8;
      }

      .cls-35 {
        fill: #79e8f7;
      }

      .cls-36 {
        fill: #778afb;
      }

      .cls-37 {
        fill: #77a6fa;
      }
    </style>
    <linearGradient id="linear-gradient" x1="0" y1="38.43" x2="87.17" y2="38.43" gradientUnits="userSpaceOnUse">
      <stop offset="0" stop-color="#764aff"/>
      <stop offset=".91" stop-color="#79e8f7"/>
      <stop offset="1" stop-color="#79e2f7"/>
    </linearGradient>
  </defs>
  <g id="Layer_3" data-name="Layer 3">
    <g>
      <g>
        <path class="cls-22" d="M2.89.64h4.11v5.46h5V.64h4.11v14.82h-4.11v-6.37h-5v6.37H2.89V.64Z"/>
        <path class="cls-22" d="M20.84,0c1.55,0,2.16.55,2.16,1.74s-.61,1.74-2.16,1.74-2.16-.55-2.16-1.74.61-1.74,2.16-1.74ZM18.9,4.49h3.9v10.97h-3.9V4.49Z"/>
        <path class="cls-22" d="M24.78,9.95c0-3.51,2.18-5.72,5.57-5.72,3.62,0,5.61,2.39,5.61,5.86,0,.3,0,.68-.06,1.08h-7.39c.13,1.44,1.19,2.18,2.99,2.18,1.19,0,2.41-.25,3.24-.85l.25,2.48c-.97.51-2.31.72-3.7.72-4.55,0-6.5-2.5-6.5-5.76ZM28.51,8.81h3.75c-.08-1.4-.76-2.14-1.88-2.14s-1.8.74-1.86,2.14Z"/>
        <path class="cls-22" d="M45.62,7.35c-.44-.25-1.04-.38-1.63-.38-1.12,0-1.97.61-2.29,1.63v6.86h-3.9V4.49h3.9v.99c.53-.72,1.44-1.25,2.63-1.25.61,0,1.21.13,1.63.34l-.34,2.77Z"/>
        <path class="cls-22" d="M46.48,12.24c0-2.33,1.65-3.81,5.08-3.81h1.8v-.49c0-.89-.53-1.21-1.86-1.21s-2.73.36-3.83.93l-.34-2.46c1.25-.59,2.99-.97,4.7-.97,3.68,0,5.12,1.25,5.12,4.23v6.99h-3.79v-.76c-.7.68-1.78,1.02-3.05,1.02-2.18,0-3.83-1.33-3.83-3.47ZM53.37,12.64v-1.84h-1.65c-1.16,0-1.69.49-1.69,1.33s.57,1.21,1.48,1.21c.76,0,1.46-.21,1.86-.7Z"/>
        <path class="cls-22" d="M67.34,7.35c-.44-.25-1.04-.38-1.63-.38-1.12,0-1.97.61-2.29,1.63v6.86h-3.9V4.49h3.9v.99c.53-.72,1.44-1.25,2.63-1.25.61,0,1.21.13,1.63.34l-.34,2.77Z"/>
        <path class="cls-22" d="M75.19,13.17c1.04,0,2.03-.23,2.69-.72l.23,2.6c-.95.44-2.14.66-3.34.66-4.11,0-6.56-2.16-6.56-5.74s2.5-5.74,6.5-5.74c1.16,0,2.35.19,3.32.64l-.23,2.6c-.7-.47-1.65-.7-2.67-.7-1.82,0-2.98,1.19-2.98,3.2s1.12,3.2,3.05,3.2Z"/>
        <path class="cls-22" d="M83.77,7.41v8.04h-3.9V0h3.9v5.27c.66-.59,1.65-1.04,2.9-1.04,2.86,0,4.4,1.8,4.4,5.29v5.93h-3.9v-5.82c0-2.07-.59-2.86-1.84-2.86-.61,0-1.23.25-1.57.64Z"/>
        <path class="cls-22" d="M96.51,15.54l-4.47-11.05h4l2.35,6.82,2.07-6.82h4l-5.4,15.05h-3.98l1.42-4Z"/>
        <path class="cls-22" d="M116.14,15.45h-3.9V0h3.9v5.27c.61-.59,1.61-1.04,2.77-1.04,2.69,0,4.78,2.2,4.78,5.74s-2.1,5.74-4.78,5.74c-1.16,0-2.16-.42-2.77-1.04v.78ZM116.14,12.53c.36.38.93.63,1.57.63,1.25,0,2.05-.91,2.05-3.2s-.8-3.2-2.05-3.2c-.63,0-1.21.25-1.57.64v5.12Z"/>
        <path class="cls-22" d="M124.95,12.24c0-2.33,1.65-3.81,5.08-3.81h1.8v-.49c0-.89-.53-1.21-1.86-1.21s-2.73.36-3.83.93l-.34-2.46c1.25-.59,2.98-.97,4.7-.97,3.68,0,5.12,1.25,5.12,4.23v6.99h-3.79v-.76c-.7.68-1.78,1.02-3.05,1.02-2.18,0-3.83-1.33-3.83-3.47ZM131.83,12.64v-1.84h-1.65c-1.16,0-1.69.49-1.69,1.33s.57,1.21,1.48,1.21c.76,0,1.46-.21,1.86-.7Z"/>
        <path class="cls-22" d="M137.57,14.84l.17-2.82c1.06.7,2.29,1.14,3.66,1.14,1.06,0,1.5-.3,1.5-.91,0-.53-.44-.85-2.18-1.38-2.18-.68-3.11-1.86-3.11-3.32,0-2.18,1.71-3.32,4.76-3.32,1.4,0,2.73.28,3.96.72l-.25,2.56c-1-.47-2.12-.74-3.11-.74-1.06,0-1.42.25-1.42.68,0,.53.4.87,2.1,1.4,2.39.76,3.2,1.93,3.2,3.3,0,2.29-1.67,3.56-4.85,3.56-1.67,0-3.15-.28-4.42-.87Z"/>
        <path class="cls-22" d="M148.09,9.95c0-3.51,2.18-5.72,5.57-5.72,3.62,0,5.61,2.39,5.61,5.86,0,.3,0,.68-.06,1.08h-7.39c.13,1.44,1.19,2.18,2.98,2.18,1.19,0,2.41-.25,3.24-.85l.25,2.48c-.97.51-2.31.72-3.7.72-4.55,0-6.5-2.5-6.5-5.76ZM151.82,8.81h3.75c-.08-1.4-.76-2.14-1.88-2.14s-1.8.74-1.86,2.14Z"/>
        <path class="cls-22" d="M166.93,9.97c0-3.39,2.33-5.74,5.97-5.74s5.97,2.35,5.97,5.74-2.33,5.74-5.97,5.74-5.97-2.33-5.97-5.74ZM174.94,9.97c0-2.16-.8-3.2-2.03-3.2s-2.03,1.04-2.03,3.2.8,3.2,2.03,3.2,2.03-1.04,2.03-3.2Z"/>
        <path class="cls-22" d="M184.65,7.41v8.04h-3.9V4.49h3.9v.78c.66-.59,1.65-1.04,2.9-1.04,2.86,0,4.4,1.8,4.4,5.29v5.93h-3.9v-5.82c0-2.07-.59-2.86-1.84-2.86-.61,0-1.23.25-1.57.64Z"/>
        <path class="cls-22" d="M204.54,5.27c.61-.59,1.61-1.04,2.77-1.04,2.69,0,4.78,2.2,4.78,5.74s-2.1,5.74-4.78,5.74c-1.16,0-2.16-.42-2.77-1.04v4.87h-3.9V4.49h3.9v.78ZM204.54,12.53c.36.38.93.63,1.57.63,1.25,0,2.05-.91,2.05-3.2s-.8-3.2-2.05-3.2c-.63,0-1.21.25-1.57.64v5.12Z"/>
        <path class="cls-22" d="M213.45,9.97c0-3.39,2.33-5.74,5.97-5.74s5.97,2.35,5.97,5.74-2.33,5.74-5.97,5.74-5.97-2.33-5.97-5.74ZM221.45,9.97c0-2.16-.8-3.2-2.03-3.2s-2.03,1.04-2.03,3.2.8,3.2,2.03,3.2,2.03-1.04,2.03-3.2Z"/>
        <path class="cls-22" d="M231.17,5.27c.61-.59,1.61-1.04,2.77-1.04,2.69,0,4.78,2.2,4.78,5.74s-2.1,5.74-4.78,5.74c-1.16,0-2.16-.42-2.77-1.04v4.87h-3.9V4.49h3.9v.78ZM231.17,12.53c.36.38.93.63,1.57.63,1.25,0,2.05-.91,2.05-3.2s-.8-3.2-2.05-3.2c-.63,0-1.21.25-1.57.64v5.12Z"/>
        <path class="cls-22" d="M247.83,12.53V4.49h3.9v10.97h-3.9v-.78c-.66.61-1.65,1.04-2.9,1.04-2.86,0-4.4-1.8-4.4-5.27v-5.95h3.9v5.82c0,2.1.59,2.86,1.84,2.86.61,0,1.23-.25,1.57-.63Z"/>
        <path class="cls-22" d="M254.25,0h3.9v15.45h-3.9V0Z"/>
        <path class="cls-22" d="M260.03,12.24c0-2.33,1.65-3.81,5.08-3.81h1.8v-.49c0-.89-.53-1.21-1.86-1.21s-2.73.36-3.83.93l-.34-2.46c1.25-.59,2.98-.97,4.7-.97,3.68,0,5.12,1.25,5.12,4.23v6.99h-3.79v-.76c-.7.68-1.78,1.02-3.05,1.02-2.18,0-3.83-1.33-3.83-3.47ZM266.91,12.64v-1.84h-1.65c-1.16,0-1.69.49-1.69,1.33s.57,1.21,1.48,1.21c.76,0,1.46-.21,1.86-.7Z"/>
        <path class="cls-22" d="M280.88,7.35c-.44-.25-1.04-.38-1.63-.38-1.12,0-1.97.61-2.29,1.63v6.86h-3.9V4.49h3.9v.99c.53-.72,1.44-1.25,2.63-1.25.61,0,1.21.13,1.63.34l-.34,2.77Z"/>
        <path class="cls-22" d="M284.55,0c1.55,0,2.16.55,2.16,1.74s-.61,1.74-2.16,1.74-2.16-.55-2.16-1.74.61-1.74,2.16-1.74ZM282.6,4.49h3.9v10.97h-3.9V4.49Z"/>
        <path class="cls-22" d="M293.73,10.94c0,1.76.51,2.22,1.65,2.22.47,0,.91-.06,1.35-.19l.23,2.48c-.7.19-1.5.25-2.24.25-4.09,0-4.89-1.99-4.89-5.63v-3.09h-1.71v-2.5h1.71V1.21h3.9v3.28h3.07v2.5h-3.07v3.96Z"/>
        <path class="cls-22" d="M302.16,15.54l-4.47-11.05h4l2.35,6.82,2.07-6.82h4l-5.4,15.05h-3.98l1.42-4Z"/>
      </g>
      <rect class="cls-10" y="30.61" width="87.17" height="15.64"/>
      <g>
        <g id="edges">
          <path class="cls-16" d="M101.15,378.83l-.28-.52c10.27-5.45,20.14-20.25,25.78-38.63,5.64-18.38,5.75-36.17.3-46.44l.52-.28c5.52,10.4,5.42,28.36-.26,46.88-5.68,18.52-15.67,33.45-26.06,38.97Z"/>
          <path class="cls-37" d="M161.13,366.43c-.36,0-.71-.01-1.06-.04l.04-.59c6.91.47,16.58-3.93,25.22-11.48,8.65-7.55,14.31-16.53,14.78-23.44l.59.04c-.48,7.06-6.22,16.2-14.98,23.85-8.33,7.27-17.63,11.66-24.59,11.66Z"/>
          <path class="cls-31" d="M277.54,385.4c-2.11-12.13-13.77-26.94-30.42-38.65-16.65-11.71-34.53-17.67-46.66-15.56l-.1-.58c26.61-4.64,73.12,28.07,77.76,54.69l-.58.1Z"/>
          <path class="cls-29" d="M260.54,132.13c-1.31-5.65-7.2-12.33-15.37-17.41-8.17-5.09-16.75-7.44-22.41-6.12l-.13-.57c5.8-1.35,14.55,1.03,22.85,6.19,8.3,5.17,14.28,11.98,15.63,17.78l-.57.13Z"/>
          <path class="cls-16" d="M238.81,168.14l-.51-.3c4.02-6.92,4.4-19.18,1-32-3.4-12.81-9.82-23.27-16.74-27.29l.3-.51c7.05,4.09,13.57,14.69,17.01,27.64,3.44,12.96,3.04,25.39-1.06,32.44Z"/>
          <path class="cls-33" d="M196.25,376.11c-14.54,0-28.27-3.11-36.34-9.78l.38-.45c9.02,7.46,26.61,10.96,45.89,9.14,19.28-1.83,35.89-8.57,43.36-17.59l.45.37c-9.71,11.74-32.58,18.32-53.73,18.32Z"/>
          <path class="cls-12" d="M277.54,385.35c-.07-11.08-16.62-27.45-27.71-27.45h-.07v-.59h.06c11.33,0,28.24,16.72,28.3,28.04h-.59Z"/>
          <path class="cls-36" d="M243.85,358.68c-16.08,0-39.68-14.12-43.72-27.7l.56-.17c2.07,6.96,9.94,14.85,20.52,20.58,10.59,5.73,21.49,8,28.45,5.93l.17.56c-1.82.54-3.83.79-5.98.79Z"/>
          <path class="cls-20" d="M157.49,205.75l-.58-.1c2.79-16.48,18.45-36.61,40.89-52.55,22.43-15.94,46.6-24.11,63.08-21.33l-.1.58c-16.33-2.76-40.33,5.37-62.64,21.22-22.31,15.85-37.89,35.85-40.65,52.17Z"/>
          <path class="cls-36" d="M101.14,378.83l-.27-.52c21.13-10.76,41.77-40.59,53.88-77.83,12.11-37.25,12.95-73.51,2.19-94.64l.52-.27c10.83,21.26,10.01,57.7-2.15,95.09-12.16,37.39-32.91,67.35-54.17,78.18Z"/>
          <path class="cls-31" d="M170.72,279.82c-5.37-22.05,3.36-55.59,22.8-87.54,19.43-31.95,45.2-55.13,67.25-60.5l.14.57c-21.9,5.34-47.53,28.42-66.89,60.24-19.35,31.82-28.06,65.19-22.73,87.1l-.57.14Z"/>
          <path class="cls-20" d="M157.37,205.94l-.32-.49c10.76-7.09,20.1-24.45,24.39-45.31,4.29-20.86,2.55-40.5-4.53-51.26l.49-.32c7.17,10.88,8.94,30.69,4.62,51.7-4.32,21.01-13.76,38.52-24.64,45.68Z"/>
          <path class="cls-26" d="M304.63,286.02c-3.38-4.95-11.55-9.18-21.32-11.02-9.77-1.84-18.92-.89-23.87,2.49l-.33-.49c5.08-3.47,14.39-4.46,24.31-2.58,9.92,1.87,18.23,6.19,21.7,11.27l-.49.33Z"/>
          <path class="cls-3" d="M278.07,385.52l-.48-.34c8.24-11.66,10.88-33.35,6.89-56.61-3.99-23.26-13.72-42.83-25.37-51.08l.34-.48c11.78,8.33,21.6,28.05,25.62,51.46,4.02,23.41,1.34,45.27-6.98,57.05Z"/>
          <path class="cls-18" d="M201.45,331.22c-.35,0-.7,0-1.05-.02l.03-.59c10.34.47,24.61-6.39,37.27-17.92,12.65-11.53,20.81-25.12,21.29-35.45l.59.03c-.49,10.48-8.72,24.22-21.48,35.86-12.34,11.25-26.25,18.1-36.64,18.1Z"/>
          <path class="cls-26" d="M249.94,357.84l-.36-.46c8.26-6.51,14.66-21.28,16.7-38.55,2.05-17.27-.73-33.13-7.23-41.39l.46-.36c14.31,18.15,8.58,66.46-9.57,80.77Z"/>
          <path class="cls-12" d="M171.28,279.82l-.57-.16c5.32-19.32-1.54-49.21-17.9-78-16.36-28.79-38.52-49.98-57.84-55.3l.16-.57c19.47,5.36,41.77,26.65,58.2,55.57,16.43,28.92,23.31,58.98,17.95,78.44Z"/>
          <path class="cls-33" d="M328.72,293.41c-9.6,0-19.28-2.47-24.06-7.35l.42-.41c9.19,9.39,36.83,9.69,46.22.5l.41.42c-4.67,4.57-13.8,6.84-22.99,6.84Z"/>
          <path class="cls-16" d="M351.42,286.64c-25.19-8.38-50.22-58.34-41.85-83.54l.56.19c-3.82,11.48-.62,29.72,8.34,47.61,8.96,17.89,21.66,31.37,33.13,35.19l-.19.56Z"/>
          <path class="cls-3" d="M127.41,293.33l-.39-.44c16.36-14.34,27.98-45.53,30.33-81.39,2.35-35.86-5.1-68.3-19.44-84.66l.44-.39c14.44,16.47,21.95,49.07,19.58,85.08-2.36,36.01-14.06,67.36-30.53,81.8Z"/>
          <path class="cls-3" d="M138.41,126.74l-.55-.2c4.28-11.55,27.84-22.37,39.4-18.09l-.2.55c-11.33-4.2-34.44,6.42-38.64,17.75Z"/>
          <path class="cls-18" d="M101.74,147.46c-2.5,0-4.81-.34-6.79-1.09l.21-.55c12.45,4.71,37.99-6.83,42.7-19.28l.55.21c-4.04,10.69-23.17,20.72-36.66,20.72Z"/>
          <path class="cls-31" d="M32.01,185.42l-.57-.13c4.86-20.73,42.96-44.34,63.69-39.48l-.13.57c-9.42-2.21-23.73,1.66-37.33,10.09-13.61,8.44-23.44,19.53-25.65,28.95Z"/>
          <path class="cls-32" d="M259.38,277.52l-.22-.54c18.92-7.72,38.79-31.84,51.88-62.96,13.08-31.12,16.41-62.2,8.7-81.12l.54-.22c7.78,19.05,4.44,50.31-8.7,81.57-13.14,31.26-33.14,55.5-52.2,63.28Z"/>
          <path class="cls-20" d="M85.29,308.78c-2.92-16.23,4.9-40.17,20.41-62.48,15.51-22.3,35.22-37.97,51.46-40.89l.1.58c-16.09,2.89-35.66,18.47-51.08,40.65-15.42,22.18-23.2,45.95-20.31,62.04l-.58.1Z"/>
          <path class="cls-31" d="M85.84,308.86l-.53-.26c11.39-23.09,62.72-40.51,85.81-29.11l-.26.53c-10.52-5.19-28.46-4.54-46.83,1.69-18.37,6.23-33.01,16.64-38.19,27.15Z"/>
          <path class="cls-31" d="M85.36,308.92c-14.22-15.98-21.78-47.76-19.73-82.95,2.05-35.19,13.25-65.88,29.23-80.1l.39.44c-15.87,14.12-26.99,44.66-29.03,79.69-2.04,35.04,5.46,66.66,19.58,82.53l-.44.39Z"/>
          <path class="cls-19" d="M259.31,277.54l-.09-.58c17.81-2.68,39.86-19.22,57.54-43.17,17.68-23.95,27-49.89,24.32-67.7l.58-.09c2.7,17.96-6.65,44.07-24.42,68.14-17.77,24.07-39.96,40.7-57.92,43.4Z"/>
          <path class="cls-27" d="M304.94,286.14l-.13-.57c12.25-2.85,26.68-15.58,37.67-33.24,10.99-17.65,16.05-36.23,13.2-48.47l.57-.13c6.25,26.87-24.44,76.16-51.31,82.41Z"/>
          <path class="cls-8" d="M355.84,204.06c-10.62-4.7-19.44-27.51-14.74-38.14l.54.24c-4.61,10.41,4.03,32.75,14.44,37.36l-.24.54Z"/>
          <path class="cls-31" d="M308.55,286.44c-1.29,0-2.53-.09-3.73-.29l.1-.58c8.89,1.47,21.93-3.01,34.05-11.69,12.12-8.68,20.56-19.59,22.03-28.48l.58.1c-3.04,18.38-33.17,40.94-53.04,40.94Z"/>
          <path class="cls-32" d="M359.38,245.83c-8.58,0-19.97-5.06-30.33-13.57-11.17-9.17-18.63-20.3-19.49-29.04l.59-.06c.84,8.59,8.23,19.57,19.28,28.64,11.05,9.07,23.26,14.19,31.85,13.34l.06.59c-.63.06-1.28.09-1.95.09Z"/>
          <path class="cls-6" d="M282.66,282.26c-9.33,0-17.49-1.58-23.53-4.75l.27-.52c12.32,6.46,33.61,6.23,55.56-.62,21.96-6.84,39.61-18.75,46.07-31.06l.52.27c-6.53,12.45-24.32,24.46-46.42,31.35-11.38,3.55-22.59,5.33-32.48,5.33Z"/>
          <path class="cls-23" d="M361.15,245.7c-20.06-12.01-32.04-59.74-20.03-79.8l.5.3c-5.46,9.13-6.2,25.4-1.91,42.47,4.28,17.07,12.61,31.07,21.74,36.53l-.3.5Z"/>
          <path class="cls-23" d="M361.12,245.68c-9.54-7.37-12.76-32.53-5.39-42.07l.47.36c-7.22,9.35-4.06,34.02,5.29,41.24l-.36.47Z"/>
          <path class="cls-31" d="M305.16,285.9l-.58-.09c3.53-22.05-7.71-54.31-29.35-84.2-21.63-29.88-48.77-50.64-70.82-54.18l.09-.58c22.2,3.56,49.48,24.41,71.2,54.41,21.72,30.01,33.01,62.44,29.45,84.64Z"/>
          <path class="cls-29" d="M127.3,293.39l-.17-.56c20.58-6.34,43.71-29.81,60.35-61.25,16.64-31.45,23.05-63.77,16.71-84.35l.56-.17c6.38,20.72-.04,53.22-16.75,84.79-16.71,31.58-39.97,55.16-60.69,61.54Z"/>
          <path class="cls-6" d="M189.18,150.57c-19.23,0-44.22-10.37-51.31-23.79l.52-.27c4.21,7.97,15.67,15.65,29.92,20.06,14.25,4.4,28.05,4.53,36.02.32l.27.52c-4.13,2.18-9.51,3.17-15.43,3.17Z"/>
          <path class="cls-6" d="M74.83,183.97l-.56-.18c6.74-20.77,30.84-43.83,62.89-60.18,32.05-16.35,64.87-22.32,85.64-15.58l-.18.56c-20.63-6.69-53.27-.74-85.19,15.54-31.92,16.28-55.9,39.21-62.6,59.84Z"/>
          <path class="cls-18" d="M74.26,183.96c-3.5-11.83,8.88-34.65,20.71-38.15l.17.56c-11.6,3.44-23.75,25.82-20.31,37.42l-.56.17Z"/>
          <path class="cls-3" d="M51.58,191.36c-8.6,0-16.18-2.17-20.06-5.8l.4-.43c4.04,3.77,12.25,5.93,21.42,5.61,9.17-.32,17.21-3.02,20.99-7.07l.43.4c-3.88,4.15-12.08,6.93-21.4,7.25-.6.02-1.19.03-1.78.03Z"/>
          <path class="cls-3" d="M85.81,308.91l-.45-.38c10.48-12.51,15.52-36.99,13.14-63.86-2.38-26.88-11.63-50.09-24.14-60.57l.38-.45c12.63,10.58,21.96,33.94,24.35,60.97,2.39,27.03-2.7,51.66-13.28,64.29Z"/>
          <path class="cls-32" d="M310.09,203.36l-.48-.34c7.53-10.79,9.85-30.79,6.05-52.22-3.8-21.42-12.87-39.41-23.65-46.94l.34-.48c10.91,7.62,20.07,25.75,23.89,47.32,3.83,21.57,1.47,41.75-6.15,52.66Z"/>
          <path class="cls-16" d="M351.77,286.49l-.52-.27c11.38-22.33,10.51-60.66-2.28-100.04-12.79-39.38-34.6-70.91-56.93-82.3l.27-.52c11.53,5.88,23.03,17.03,33.28,32.25,9.59,14.26,17.87,31.68,23.95,50.38,6.07,18.7,9.61,37.67,10.22,54.84.65,18.34-2.1,34.13-7.98,45.65Z"/>
          <path class="cls-32" d="M216.49,149.2c-4.41,0-8.51-.56-12.12-1.78l.19-.56c12.07,4.06,31.29.77,50.16-8.59,18.87-9.36,33.11-22.67,37.18-34.75l.56.19c-7.7,22.87-48.04,45.48-75.96,45.48Z"/>
          <path class="cls-32" d="M70,352.64l-.54-.23c5.44-12.61,16.47-25.55,31.9-37.44,14.45-11.13,32.34-21.09,51.74-28.79,19.4-7.7,39.25-12.74,57.4-14.55,19.38-1.94,36.29-.09,48.89,5.35l-.23.54c-12.51-5.4-29.32-7.23-48.6-5.3-18.1,1.81-37.89,6.83-57.24,14.52-19.35,7.68-37.19,17.61-51.6,28.71-15.35,11.82-26.32,24.69-31.72,37.2Z"/>
          <path class="cls-32" d="M233.16,404.94c-21.53-8.26-41.29-52.61-33.03-74.14l.55.21c-3.76,9.79-1.7,25.73,5.36,41.59,7.06,15.86,17.54,28.04,27.33,31.8l-.21.55Z"/>
          <path class="cls-27" d="M233,404.79c-6.19-12.87,3.75-41.26,16.62-47.45l.26.53c-12.66,6.09-22.44,34-16.35,46.67l-.53.26Z"/>
          <path class="cls-27" d="M108.65,214.84c-.25,0-.49,0-.74-.01l.02-.59c10.2.32,24.2-6.65,36.52-18.21,12.32-11.56,20.18-25.08,20.5-35.28l.59.02c-.71,22.2-34.44,54.08-56.89,54.08Z"/>
          <path class="cls-25" d="M157.37,205.94l-.34-.48c4.84-3.37,8.92-11.45,10.64-21.08,1.72-9.63.7-18.62-2.68-23.46l.48-.34c3.46,4.96,4.52,14.12,2.77,23.9-1.75,9.78-5.92,18-10.88,21.46Z"/>
          <path class="cls-18" d="M164.99,160.9c-3.75-5.98-4.48-16.72-1.89-28.02s7.91-20.66,13.89-24.41l.31.5c-5.85,3.67-11.07,12.89-13.63,24.04-2.55,11.16-1.86,21.73,1.81,27.58l-.5.31Z"/>
          <path class="cls-18" d="M74.73,195.97c-17.85,0-33.31-3.58-43.18-10.37l.33-.48c14.57,10.03,41.48,12.98,70.23,7.68,28.75-5.3,52.85-17.64,62.88-32.21l.48.33c-10.12,14.69-34.36,27.13-63.26,32.45-9.48,1.75-18.77,2.6-27.49,2.6Z"/>
          <path class="cls-26" d="M64.86,226.41l-.5-.32c6.71-10.53,23.33-19.84,43.4-24.3,20.06-4.45,39.07-3.06,49.6,3.65l-.32.5c-10.41-6.62-29.24-7.99-49.16-3.57-19.92,4.42-36.4,13.63-43.03,24.04Z"/>
          <path class="cls-3" d="M64.9,226.31l-.58-.12c3.27-15.44,18.83-33.85,40.62-48.03,21.79-14.18,44.92-20.97,60.36-17.7l-.12.58c-15.3-3.23-38.26,3.52-59.92,17.62-21.66,14.1-37.13,32.36-40.36,47.66Z"/>
          <path class="cls-32" d="M74.59,184.17l-.08-.58c18.3-2.65,41.02-19.51,59.3-43.99,18.28-24.48,27.99-51.06,25.33-69.36l.58-.08c2.68,18.45-7.07,45.19-25.44,69.79-18.37,24.6-41.24,41.55-59.69,44.22Z"/>
          <path class="cls-36" d="M305.16,285.93l-.57-.16c3.32-11.84-.81-30.2-10.77-47.92-9.96-17.72-23.51-30.79-35.34-34.11l.16-.57c25.98,7.28,53.8,56.78,46.52,82.75Z"/>
          <path class="cls-18" d="M248.23,204.8c-17.52,0-40.06-7.72-61.57-21.44-26.06-16.63-44.77-38.34-48.82-56.66l.57-.13c4.02,18.18,22.63,39.75,48.56,56.29,25.93,16.54,53.34,24.33,71.51,20.31l.13.57c-3.2.71-6.68,1.05-10.39,1.05Z"/>
          <path class="cls-32" d="M281.67,321.84l-.49-.33c8.78-12.99,11.17-36.87,6.25-62.32-4.92-25.45-16.05-46.71-29.04-55.49l.33-.49c13.12,8.86,24.34,30.27,29.29,55.87,4.95,25.6,2.52,49.64-6.34,62.76Z"/>
          <path class="cls-26" d="M127.25,293.4l-.08-.58c15.81-2.24,35.48-16.73,51.34-37.82,15.86-21.09,24.33-44.01,22.09-59.82l.58-.08c2.26,15.96-6.25,39.04-22.2,60.25-15.95,21.21-35.78,35.79-51.73,38.05Z"/>
          <path class="cls-5" d="M169.26,208.7c-4.77,0-9.1-.85-12.21-2.75l.31-.5c10.8,6.6,36.69.34,43.29-10.46l.5.31c-4.82,7.89-19.77,13.41-31.89,13.41Z"/>
          <path class="cls-26" d="M200.75,195.39c-10.26-5.84-19.83-21.1-24.98-39.82-5.15-18.73-4.72-36.74,1.12-47l.51.29c-5.76,10.13-6.17,27.96-1.06,46.55,5.11,18.58,14.57,33.71,24.7,39.47l-.29.51Z"/>
          <path class="cls-26" d="M126.51,216.26c-3.84,0-7.74-.11-11.69-.34-36.6-2.12-68.53-13.75-83.33-30.37l.44-.39c14.7,16.5,46.47,28.06,82.92,30.17,36.45,2.11,69.34-5.71,85.85-20.41l.39.44c-14.82,13.2-42.74,20.9-74.58,20.9Z"/>
          <path class="cls-17" d="M200.64,195.44c-14.19,0-35.44-20.58-35.7-34.68h.59c.25,13.86,21.14,34.09,35.1,34.09.09,0,.17,0,.26,0v.59c-.08,0-.16,0-.25,0Z"/>
          <path class="cls-18" d="M103.73,235.42c-16.02,0-29.9-3.02-39.28-8.91l.31-.5c15.43,9.69,43.24,11.55,72.59,4.85,29.35-6.7,53.6-20.45,63.29-35.87l.5.31c-9.77,15.55-34.16,29.4-63.66,36.13-11.72,2.68-23.2,3.99-33.76,3.99Z"/>
          <path class="cls-13" d="M258.32,203.64c-4.52-6.04-15.01-10.91-27.38-12.69-12.37-1.79-23.81-.09-29.86,4.43l-.35-.47c13.35-9.98,48.08-4.97,58.06,8.38l-.47.35Z"/>
          <path class="cls-15" d="M156.91,205.71c-.18-5.86-4.69-13.64-11.77-20.3-7.08-6.66-15.11-10.7-20.98-10.51l-.02-.59c6.03-.17,14.21,3.91,21.4,10.67,7.19,6.77,11.77,14.7,11.96,20.71l-.59.02Z"/>
          <path class="cls-12" d="M123.86,174.63c-2.6-24,29.26-63.6,53.26-66.2l.06.58c-10.92,1.18-24.79,10.72-36.18,24.88-11.39,14.16-17.74,29.75-16.55,40.67l-.58.06Z"/>
          <path class="cls-26" d="M123.89,174.74c-6.88-12.55,1.55-41.47,14.1-48.35l.28.52c-12.34,6.77-20.63,35.21-13.86,47.56l-.52.28Z"/>
          <path class="cls-13" d="M124.41,174.73l-.53-.26c5.53-11.15,30.34-19.51,41.49-13.98l-.26.53c-5.02-2.49-13.6-2.19-22.4.78-8.8,2.97-15.81,7.92-18.3,12.94Z"/>
          <path class="cls-16" d="M315.02,246.03c-9.23,0-21.24-4.46-32.54-12.26-13.18-9.09-22.46-20.68-24.21-30.25l.58-.11c1.73,9.42,10.92,20.87,23.97,29.88,13.05,9,27.02,13.52,36.44,11.79l.11.58c-1.36.25-2.81.37-4.34.37Z"/>
          <path class="cls-12" d="M229.48,234.6c-14.38-26.93,4.29-88.42,31.21-102.8l.28.52c-12.29,6.56-24.07,24.33-30.76,46.36s-6.77,43.36-.21,55.64l-.52.28Z"/>
          <path class="cls-31" d="M230.01,234.58l-.54-.24c4.55-10.37,18.16-21.03,35.53-27.81,17.37-6.78,34.6-8.16,44.97-3.61l-.24.54c-10.24-4.49-27.3-3.1-44.52,3.62-17.23,6.72-30.72,17.26-35.2,27.5Z"/>
          <path class="cls-15" d="M216.57,237.1c-22.05,0-52.42-14.59-59.63-31.29l.54-.23c4.02,9.3,16.2,18.92,31.79,25.11,15.59,6.18,31.05,7.53,40.36,3.51l.23.54c-3.76,1.63-8.32,2.37-13.29,2.37Z"/>
          <path class="cls-36" d="M173.9,280.22c-1.01,0-1.99-.06-2.93-.18l.08-.58c9.55,1.24,23.32-4.04,35.94-13.77,12.62-9.73,21.23-21.71,22.46-31.26l.58.08c-1.25,9.7-9.95,21.83-22.69,31.65-11.51,8.87-23.99,14.07-33.45,14.07Z"/>
          <path class="cls-13" d="M229.72,234.76c-12.86-.86-29.53-11.31-43.51-27.28-13.97-15.97-22.12-33.88-21.26-46.75l.59.04c-.85,12.71,7.24,30.46,21.12,46.32,13.87,15.86,30.39,26.24,43.1,27.08l-.04.59Z"/>
          <path class="cls-36" d="M229.44,234.47c-.21-5.61,3.56-13.29,9.84-20.03,6.27-6.75,13.65-11.07,19.26-11.27l.02.59c-5.46.2-12.68,4.45-18.85,11.08-6.17,6.64-9.88,14.15-9.68,19.61l-.59.02Z"/>
          <path class="cls-11" d="M229.69,234.75c-13.81-2.13-31.21-25.85-29.08-39.66l.58.09c-2.09,13.58,15.01,36.9,28.59,38.99l-.09.58Z"/>
          <path class="cls-31" d="M207.1,371.85l-.59-.04c1.12-17.1,15.01-39.29,36.24-57.9,21.23-18.61,45.04-29.46,62.14-28.35l-.04.59c-16.95-1.11-40.6,9.69-61.71,28.2-21.11,18.51-34.92,40.54-36.04,57.49Z"/>
          <path class="cls-33" d="M206.64,372.06c-4.44-3.24-8.06-10.79-9.46-19.7-1.39-8.91-.25-17.2,2.99-21.64l.47.35c-3.15,4.32-4.26,12.44-2.89,21.2,1.37,8.76,4.9,16.16,9.22,19.31l-.35.48Z"/>
          <path class="cls-31" d="M207.07,371.96l-.53-.26c2.69-5.36,10.17-10.61,19.51-13.7,9.34-3.09,18.47-3.34,23.83-.65l-.26.52c-5.22-2.62-14.18-2.36-23.38.69-9.2,3.05-16.54,8.18-19.17,13.41Z"/>
          <path class="cls-19" d="M261.12,132.08l-.59-.05c.88-10.81-5.79-26.03-17.41-39.71-11.62-13.68-25.56-22.73-36.37-23.61l.05-.59c10.96.89,25.05,10.02,36.77,23.81,11.72,13.8,18.44,29.18,17.55,40.14Z"/>
          <path class="cls-32" d="M238.81,168.12l-.52-.27c6.24-12.09,5.87-32.9-.97-54.32-6.84-21.42-18.59-38.61-30.68-44.84l.27-.52c26.5,13.68,45.58,73.47,31.9,99.96Z"/>
          <path class="cls-29" d="M222.97,108.42l-.54-.23c4.77-11.11-4.67-34.73-15.77-39.5l.23-.54c11.32,4.86,20.94,28.95,16.08,40.27Z"/>
          <path class="cls-29" d="M291.9,103.74c-4.62-11.09-18.89-22.68-37.26-30.25-18.37-7.57-36.67-9.41-47.76-4.79l-.23-.54c11.23-4.67,29.7-2.84,48.21,4.79,18.51,7.63,32.91,19.34,37.58,30.57l-.54.23Z"/>
          <path class="cls-11" d="M189.6,239.57c-13.37-.24-32.92-20.5-32.69-33.87h.59c-.11,6.04,4.14,14.25,11.08,21.45,6.94,7.19,15,11.73,21.03,11.84v.59Z"/>
          <path class="cls-18" d="M173.3,242c-14.47,0-32.17-4.48-49.67-12.91-24.91-11.99-43.82-29.28-49.37-45.12l.56-.19c5.5,15.7,24.3,32.86,49.07,44.79,24.77,11.93,49.91,15.92,65.61,10.43l.19.56c-4.71,1.65-10.27,2.45-16.4,2.45Z"/>
          <path class="cls-7" d="M189.46,239.53c-20.78-10.94-35.42-58.14-24.48-78.92l.52.27c-4.98,9.45-4.81,25.81.42,42.69,5.24,16.88,14.36,30.46,23.82,35.44l-.27.52Z"/>
          <path class="cls-13" d="M189.35,239.42c-6.66-11.24.16-37.88,11.4-44.54l.3.51c-11.04,6.54-17.73,32.69-11.2,43.73l-.51.3Z"/>
          <path class="cls-36" d="M189.44,239.57c-26.26,0-65.43-38.75-65.59-64.97h.59c.07,11.96,8.86,28.04,22.94,41.95,14.02,13.85,30.12,22.44,42.07,22.44.05,0,.1,0,.15,0v.59s-.1,0-.16,0Z"/>
          <path class="cls-4" d="M238.32,168.17c-15.05-19.73-49.64-35.37-90.26-40.83-40.62-5.46-78.11.5-97.84,15.55l-.36-.47c10.18-7.77,25.07-13.26,43.05-15.88,16.84-2.45,35.93-2.38,55.23.22,19.3,2.59,37.74,7.57,53.33,14.38,16.65,7.27,29.56,16.5,37.32,26.68l-.47.36Z"/>
          <path class="cls-31" d="M50.28,142.81l-.48-.33c6.71-9.69,22.74-17.87,41.84-21.34,19.09-3.47,36.97-1.45,46.67,5.26l-.33.48c-9.57-6.63-27.28-8.6-46.23-5.16-18.94,3.44-34.83,11.53-41.46,21.1Z"/>
          <path class="cls-16" d="M64.85,226.42l-.48-.34c6.34-9.02,8.34-25.79,5.2-43.77-3.13-17.98-10.69-33.08-19.71-39.43l.34-.48c19.82,13.94,28.59,64.19,14.65,84.02Z"/>
          <path class="cls-33" d="M123.88,174.7c-3.87-9.74-16.18-20.06-32.11-26.93-15.93-6.87-31.88-8.73-41.62-4.85l-.22-.55c9.88-3.93,26-2.07,42.07,4.86,16.07,6.93,28.49,17.37,32.42,27.25l-.55.22Z"/>
          <path class="cls-26" d="M127.35,293.37l-.27-.52c12.56-6.36,21.77-34.52,15.41-47.08l.52-.27c6.47,12.77-2.9,41.4-15.67,47.87Z"/>
          <path class="cls-13" d="M171.29,279.77l-.59-.06c.54-5.69-2.89-13.77-8.94-21.08-6.05-7.31-13.35-12.18-19.04-12.71l.06-.59c5.84.55,13.29,5.5,19.44,12.92,6.15,7.42,9.62,15.66,9.08,21.51Z"/>
          <path class="cls-13" d="M142.65,245.91c-29.7-10.46-58.33-70.22-47.88-99.92l.55.2c-4.77,13.55-1.36,35.28,8.9,56.7,10.26,21.42,25.06,37.7,38.61,42.47l-.2.55Z"/>
          <path class="cls-26" d="M129.7,247.63c-14.88,0-33.49-5.37-51.65-15.23-24.04-13.05-41.9-31.05-46.61-46.97l.56-.17c4.67,15.78,22.43,33.64,46.33,46.62,23.9,12.98,48.56,18.14,64.33,13.46l.17.56c-3.89,1.15-8.32,1.71-13.13,1.71Z"/>
          <path class="cls-12" d="M281.14,321.76c-5.77-19.79-27.92-42.27-57.79-58.65-29.87-16.38-60.73-22.97-80.52-17.2l-.16-.56c19.94-5.82,50.96.79,80.97,17.24,30,16.45,52.26,39.06,58.07,59l-.56.16Z"/>
          <path class="cls-26" d="M85.59,309.02l-.03-.59c11.05-.54,25.55-9.31,37.84-22.87,12.29-13.56,19.59-28.86,19.05-39.91l.59-.03c.55,11.2-6.8,26.66-19.2,40.33-12.39,13.68-27.05,22.51-38.25,23.06Z"/>
          <path class="cls-15" d="M141.46,245.96c-11.98,0-28.02-7.85-42.28-20.76-14.78-13.38-24.33-29.21-24.94-41.31l.59-.03c.59,11.95,10.07,27.62,24.74,40.91,14.67,13.28,31.21,21.17,43.15,20.57l.03.59c-.43.02-.86.03-1.3.03Z"/>
          <path class="cls-25" d="M143.04,245.66l-.59-.04c1.55-21.95,36.51-52.32,58.46-50.77l-.04.59c-9.98-.7-23.94,5.6-36.44,16.46-12.5,10.85-20.7,23.79-21.4,33.77Z"/>
          <path class="cls-16" d="M319.49,326.13c-20.15,0-45.71-8-70.42-22.49-31.3-18.35-54.2-42.99-59.76-64.3l.57-.15c5.52,21.16,28.31,45.66,59.48,63.94,31.17,18.28,63.68,26.2,84.85,20.68l.15.57c-4.49,1.17-9.49,1.74-14.88,1.74Z"/>
          <path class="cls-19" d="M261.06,132.24l-.47-.36c4.17-5.41,5.86-15.73,4.41-26.95-1.45-11.22-5.7-20.78-11.11-24.95l.36-.47c5.52,4.26,9.87,13.97,11.33,25.34,1.47,11.37-.27,21.86-4.53,27.39Z"/>
          <path class="cls-29" d="M223.28,108.61c-.2,0-.4,0-.6-.01l.03-.59c11.92.56,30.51-16.36,31.07-28.28l.59.03c-.56,11.96-18.91,28.86-31.09,28.86Z"/>
          <path class="cls-3" d="M158.66,130.49c-7.92,0-14.97-1.18-20.64-3.58l.23-.54c15,6.36,39.82,4.04,64.79-6.06,24.96-10.1,44.42-25.69,50.78-40.68l.54.23c-6.42,15.14-26,30.85-51.1,41-15.7,6.35-31.36,9.64-44.59,9.64Z"/>
          <path class="cls-29" d="M204.51,147.43l-.09-.58c10.75-1.63,24.06-11.65,34.72-26.14,10.67-14.49,16.28-30.17,14.64-40.92l.58-.09c1.66,10.9-3.99,26.75-14.75,41.36-10.76,14.61-24.21,24.72-35.11,26.38Z"/>
          <path class="cls-29" d="M291.89,103.69c-1.3-5.66-7.17-12.36-15.33-17.47-8.16-5.12-16.75-7.49-22.41-6.19l-.13-.57c5.81-1.33,14.56,1.07,22.85,6.27,8.29,5.2,14.26,12.03,15.6,17.84l-.57.13Z"/>
          <path class="cls-19" d="M240.89,82.98c-3.81,0-7.98-.5-12.22-1.52-10.29-2.46-18.77-7.4-22.14-12.89l.5-.31c7.17,11.68,35.22,18.39,46.9,11.22l.31.5c-3.22,1.98-7.93,2.99-13.35,2.99Z"/>
          <path class="cls-14" d="M185.46,266.06c-5.61,0-11.3-.19-17.01-.58-21.7-1.46-42.62-5.63-60.5-12.07-19.09-6.87-34.16-16.2-43.57-26.97l.44-.39c9.35,10.69,24.33,19.96,43.32,26.8,17.83,6.42,38.69,10.58,60.34,12.04,21.64,1.46,42.88.13,61.41-3.84,19.74-4.23,35.83-11.41,46.52-20.75l.39.44c-10.77,9.41-26.95,16.63-46.79,20.88-13.69,2.93-28.85,4.43-44.56,4.43Z"/>
          <path class="cls-28" d="M334.58,324.16l-.58-.11c2.38-13-3.84-32.24-16.25-50.22-12.41-17.98-28.19-30.63-41.18-33.01l.11-.58c13.14,2.41,29.07,15.15,41.56,33.26,12.49,18.1,18.76,37.52,16.35,50.66Z"/>
          <path class="cls-11" d="M157.47,205.83l-.52-.27c7.41-14.14,7.12-38.58-.75-63.77-7.87-25.19-21.55-45.44-35.69-52.85l.27-.52c14.28,7.48,28.06,27.86,35.98,53.2,7.92,25.33,8.19,49.94.71,64.22Z"/>
          <path class="cls-31" d="M176.88,108.85c-3.34-7.01-12.95-14.04-25.08-18.34-12.13-4.3-24.02-4.9-31.04-1.55l-.25-.53c15.49-7.38,49.52,4.69,56.9,20.18l-.53.25Z"/>
          <path class="cls-18" d="M138.41,126.74l-.55-.2c1.87-5.06.7-13.25-3.04-21.38-3.74-8.13-9.21-14.34-14.27-16.2l.2-.55c5.2,1.92,10.8,8.25,14.6,16.51,3.81,8.26,4.98,16.63,3.06,21.83Z"/>
          <path class="cls-7" d="M165.53,160.81l-.57-.13c2.52-10.72-1.87-27.01-11.45-42.5-9.59-15.49-22.21-26.69-32.93-29.21l.13-.57c10.87,2.56,23.62,13.85,33.29,29.47,9.67,15.62,14.09,32.08,11.53,42.95Z"/>
          <path class="cls-31" d="M120.89,88.84l-.5-.31c13.3-21.48,65.06-33.65,86.54-20.35l-.31.5c-9.78-6.06-27.36-7.11-45.88-2.76-18.52,4.36-33.79,13.14-39.85,22.92Z"/>
          <path class="cls-13" d="M142.99,245.81l-.47-.35c12.43-16.51,17.19-47.77,12.43-81.58-4.76-33.81-17.98-62.54-34.48-74.97l.35-.47c16.63,12.52,29.93,41.4,34.71,75.36,4.78,33.96-.02,65.38-12.54,82.01Z"/>
          <path class="cls-27" d="M41.46,319.31h-.02v-.59h.02c11.09,0,26.04-8.05,39.02-21,12.99-12.97,21.07-27.91,21.08-39.01h.59c-.01,11.25-8.15,26.35-21.25,39.42-13.09,13.06-28.2,21.18-39.44,21.18Z"/>
          <path class="cls-27" d="M238.32,316.29c-7.31-17.9-30.14-36.71-59.59-49.08-29.45-12.38-58.86-15.52-76.76-8.22l-.22-.54c18.04-7.36,47.62-4.21,77.21,8.22,29.59,12.43,52.54,31.36,59.91,49.4l-.54.22Z"/>
          <path class="cls-7" d="M101.66,258.93c-11.11-9.84-18.92-31.1-20.39-55.49-1.47-24.39,3.73-46.44,13.57-57.54l.44.39c-9.74,10.99-14.88,32.88-13.42,57.12,1.46,24.24,9.2,45.35,20.19,55.09l-.39.44Z"/>
          <path class="cls-18" d="M101.85,259.01c-28.95-.65-71.07-44.71-70.42-73.66h.59c-.3,13.21,8.89,31.22,23.98,47,15.09,15.78,32.66,25.77,45.86,26.07v.59Z"/>
          <path class="cls-31" d="M281.16,321.81c-10.76-22.37-41.48-44.7-80.17-58.27-38.7-13.57-76.63-15.32-99.01-4.56l-.26-.53c11.55-5.55,27.24-7.92,45.39-6.85,16.99,1,35.69,4.94,54.07,11.38,18.38,6.45,35.44,15.05,49.34,24.87,14.84,10.49,25.62,22.15,31.17,33.69l-.53.26Z"/>
          <path class="cls-18" d="M85.71,308.99l-.27-.52c6.07-3.09,12-11.67,15.49-22.39s3.74-21.16.65-27.22l.52-.27c3.16,6.2,2.92,16.8-.62,27.67-3.54,10.87-9.58,19.58-15.78,22.74Z"/>
          <path class="cls-24" d="M101.73,258.98c-20.63-9.6-37.05-54.6-27.45-75.23l.53.25c-4.37,9.38-3.43,25.2,2.44,41.29s15.34,28.79,24.73,33.16l-.25.53Z"/>
          <path class="cls-17" d="M102.11,258.85l-.52-.27c2.61-5.06,9.76-9.97,18.66-12.82,8.9-2.85,17.57-2.99,22.64-.39l-.27.52c-10.74-5.53-34.97,2.21-40.5,12.95Z"/>
          <path class="cls-7" d="M101.62,258.9c-14.04-17.53-20.24-51.27-16.17-88.05s17.48-68.35,35.01-82.4l.37.46c-17.41,13.95-30.74,45.37-34.79,82-4.05,36.63,2.1,70.21,16.05,87.62l-.46.37Z"/>
          <path class="cls-2" d="M62.92,271.06l-.58-.11c5.9-32.24,62.68-71.45,94.92-65.54l-.11.58c-14.72-2.69-36.51,4.36-56.87,18.42-20.36,14.06-34.68,31.93-37.37,46.65Z"/>
          <path class="cls-31" d="M62.39,271.18c-15.18-20-8.02-72.36,11.98-87.54l.36.47c-9.1,6.91-16.35,22.85-18.92,41.58-2.56,18.74.14,36.03,7.05,45.13l-.47.36Z"/>
          <path class="cls-33" d="M62.34,271.07c-3.24-14.69,3.02-36.78,16.34-57.65,13.32-20.88,30.72-35.86,45.41-39.11l.13.57c-14.54,3.21-31.8,18.1-45.04,38.85-13.24,20.75-19.47,42.67-16.26,57.21l-.57.13Z"/>
          <path class="cls-33" d="M62.87,271.16l-.5-.32c12.12-18.91,42.11-35.56,78.26-43.47,36.15-7.91,70.35-5.29,89.26,6.84l-.32.5c-18.78-12.04-52.81-14.63-88.81-6.76-36,7.87-65.85,24.43-77.89,43.21Z"/>
          <path class="cls-16" d="M161.05,321.96c-5.05-10.32-4.38-27.85,1.75-45.75,6.13-17.89,16.35-32.15,26.68-37.2l.26.53c-10.19,4.99-20.3,19.11-26.38,36.87-6.08,17.75-6.76,35.11-1.78,45.3l-.53.26Z"/>
          <path class="cls-36" d="M308.87,356.08c-6.92-6.14-11.79-19.39-12.7-34.58-.91-15.19,2.34-28.92,8.48-35.85l.44.39c-6.04,6.81-9.23,20.38-8.33,35.42.9,15.04,5.69,28.13,12.5,34.17l-.39.44Z"/>
          <path class="cls-31" d="M278.17,385.65c-.12,0-.23,0-.35,0l.02-.59c5.53.17,13.14-3.66,19.83-9.98,6.69-6.31,10.94-13.68,11.1-19.22l.59.02c-.16,5.69-4.49,13.22-11.29,19.63-6.66,6.29-14.24,10.14-19.9,10.14Z"/>
          <path class="cls-33" d="M308.86,356.07c-14.11-14.25-22.76-43.63-22.59-76.66.17-33.03,9.13-62.32,23.38-76.42l.41.42c-14.14,14-23.04,43.12-23.21,76.01-.17,32.88,8.42,62.1,22.42,76.24l-.42.41Z"/>
          <path class="cls-36" d="M277.6,365.97c-11.23,0-22.23-2.67-28.04-8.16l.4-.43c5.59,5.28,16.98,8.31,29.71,7.95,12.73-.37,23.92-4.08,29.19-9.68l.43.4c-6.16,6.54-19.07,9.91-31.69,9.91Z"/>
          <path class="cls-37" d="M308.78,355.93c-2.52-10.43,1.63-26.27,10.83-41.34,9.2-15.07,21.4-26,31.83-28.52l.14.57c-10.29,2.49-22.34,13.31-31.47,28.25-9.12,14.94-13.25,30.61-10.76,40.9l-.57.14Z"/>
          <path class="cls-33" d="M242.22,380.92c-14.83,0-27.68-3.09-35.58-8.86l.35-.48c10.88,7.94,31.3,10.74,53.3,7.31,22-3.43,40.6-12.33,48.54-23.2l.47.35c-8.03,11-26.78,19.98-48.93,23.44-6.24.97-12.35,1.45-18.16,1.45Z"/>
          <path class="cls-16" d="M170.79,279.95c-13.18-13.97-41.08-23.23-72.81-24.15-31.73-.92-60.12,6.69-74.09,19.87l-.4-.43c14.08-13.28,42.63-20.96,74.51-20.03,31.88.93,59.93,10.25,73.22,24.33l-.43.4Z"/>
          <path class="cls-33" d="M23.94,275.62l-.49-.32c5.72-8.84,19.81-16.59,36.75-20.22,16.95-3.63,32.97-2.33,41.81,3.39l-.32.49c-8.72-5.64-24.57-6.91-41.37-3.31-16.8,3.6-30.74,11.25-36.38,19.97Z"/>
          <path class="cls-30" d="M183.66,409.11c-13.45-3.87-27.71-29.65-23.85-43.1l.57.16c-3.8,13.22,10.22,38.57,23.44,42.37l-.16.57Z"/>
          <path class="cls-23" d="M183.99,408.98l-.5-.3c6.57-10.94,23.32-20.9,43.7-25.99,20.39-5.09,39.85-4.17,50.79,2.41l-.3.5c-10.81-6.49-30.1-7.39-50.34-2.34-20.24,5.05-36.85,14.91-43.34,25.72Z"/>
          <path class="cls-31" d="M160.16,366.38l-.13-.57c12.81-2.9,27.96-16.11,39.54-34.47,11.58-18.36,16.98-37.73,14.08-50.53l.57-.13c2.93,12.95-2.49,32.48-14.15,50.98-11.66,18.49-26.95,31.8-39.91,34.73Z"/>
          <path class="cls-3" d="M278.12,385.42l-.57-.14c3.75-15.52-2.47-39.15-16.22-61.67-13.76-22.52-31.94-38.84-47.46-42.59l.14-.57c15.66,3.78,33.99,20.2,47.82,42.85,13.83,22.65,20.08,46.45,16.29,62.11Z"/>
          <path class="cls-18" d="M200.56,331.15l-.29-.51c5.83-3.35,11.25-12.12,14.15-22.87,2.9-10.76,2.62-21.06-.73-26.88l.51-.29c3.43,5.96,3.73,16.43.79,27.33-2.94,10.9-8.46,19.8-14.42,23.23Z"/>
          <path class="cls-26" d="M250.03,357.7l-.55-.2c3.77-10.36,1.33-27.05-6.37-43.58-7.7-16.53-18.92-29.14-29.27-32.91l.2-.55c10.5,3.82,21.84,16.55,29.61,33.21,7.77,16.66,10.21,33.53,6.39,44.03Z"/>
          <path class="cls-20" d="M214.16,280.93l-.45-.38c8.49-9.9,35.85-12.01,45.75-3.52l-.38.45c-9.72-8.33-36.59-6.26-44.92,3.46Z"/>
          <path class="cls-29" d="M214.2,280.87l-.53-.26c6.51-13.09,24.73-25.98,47.55-33.64,22.82-7.66,45.13-8.38,58.22-1.87l-.26.53c-12.96-6.44-35.09-5.72-57.77,1.9-22.68,7.61-40.77,20.39-47.21,33.35Z"/>
          <path class="cls-6" d="M207,372.05l-.38-.45c9.03-7.72,15.59-24.68,17.12-44.27,1.53-19.59-2.31-37.37-10.03-46.4l.45-.38c7.82,9.14,11.72,27.09,10.17,46.83s-8.18,36.86-17.33,44.68Z"/>
          <path class="cls-32" d="M213.89,281.03c-14.53-2.02-31.01-9.71-47.64-22.23-15.58-11.72-30.92-27.33-44.38-45.13-13.46-17.8-24.29-36.82-31.32-55.01-7.51-19.42-10.41-37.36-8.39-51.9l.58.08c-2.01,14.44.88,32.28,8.36,51.6,7.01,18.13,17.81,37.11,31.24,54.86,13.42,17.76,28.73,33.32,44.26,45.02,16.55,12.46,32.93,20.11,47.37,22.11l-.08.58Z"/>
          <path class="cls-18" d="M308.78,355.9c-1.84-15.68-15.71-35.46-36.19-51.64-20.48-16.17-42.94-25.07-58.62-23.23l-.07-.58c15.83-1.86,38.46,7.09,59.05,23.35,20.6,16.26,34.55,36.2,36.41,52.03l-.58.07Z"/>
          <path class="cls-1" d="M21.53,229.07l-.56-.17c9.78-31.72,71.55-64.37,103.27-54.58l-.17.56c-14.48-4.47-37.24.03-59.39,11.74-22.15,11.71-38.68,27.97-43.15,42.46Z"/>
          <path class="cls-23" d="M101.1,378.85l-.19-.56c11.43-3.88,22.67-26.68,18.79-38.12l.56-.19c3.96,11.66-7.5,34.91-19.16,38.87Z"/>
          <path class="cls-29" d="M119.75,340.25c-3.72-5.08-5.06-14.57-3.48-24.79,1.57-10.21,5.7-18.87,10.78-22.59l.35.47c-4.95,3.63-8.99,12.14-10.54,22.21-1.55,10.07-.26,19.4,3.38,24.35l-.47.35Z"/>
          <path class="cls-33" d="M119.69,340.1c-1.88-22.49,28.79-58.77,51.29-60.65l.05.59c-10.23.86-23.39,9.44-34.36,22.41-10.97,12.97-17.25,27.38-16.39,37.6l-.59.05Z"/>
          <path class="cls-33" d="M120.28,340.08h-.59c.09-13.11,4.97-28.58,14.12-44.77,8.56-15.15,20.58-30.55,34.77-44.54,14.18-13.98,29.75-25.79,45.03-34.13,16.31-8.91,31.87-13.56,44.96-13.48v.59c-25.4-.19-59.71,18-89.57,47.44-29.86,29.44-48.52,63.5-48.71,88.89Z"/>
          <path class="cls-18" d="M119.73,340.23c-6.67-10.91-7.75-30.4-2.82-50.86,4.93-20.46,14.77-37.32,25.68-43.99l.31.5c-10.78,6.59-20.52,23.31-25.42,43.62-4.9,20.32-3.84,39.63,2.75,50.41l-.5.31Z"/>
          <path class="cls-28" d="M233.05,404.86c-8.42-9.17-26.44-15.42-47.01-16.3-20.58-.88-39.06,3.81-48.23,12.23l-.4-.43c9.28-8.52,27.93-13.27,48.65-12.38,20.73.89,38.9,7.2,47.42,16.49l-.43.4Z"/>
          <path class="cls-34" d="M262.32,175.22c-10.3,0-19.4-2.65-23.97-7.02l.41-.43c4.67,4.46,14.21,7.09,24.91,6.84,10.7-.24,20.12-3.29,24.58-7.96l.43.41c-4.57,4.78-14.14,7.89-24.99,8.14-.46.01-.91.02-1.36.02Z"/>
          <path class="cls-12" d="M220.36,199.29c-7.74,0-14.52-1.29-19.6-3.89l.27-.52c10.65,5.45,28.96,5.06,47.8-1.02,18.83-6.08,33.92-16.47,39.37-27.12l.52.27c-5.52,10.78-20.74,21.29-39.71,27.42-10.04,3.24-19.95,4.88-28.65,4.88Z"/>
          <path class="cls-21" d="M161.34,322.12l-.06-.59c26.03-2.57,59.22-24.91,86.62-58.3,27.4-33.4,42.83-70.31,40.26-96.34l.59-.06c1.32,13.43-2,29.81-9.61,47.38-7.13,16.45-17.77,33.53-30.79,49.39-13.01,15.86-27.68,29.64-42.43,39.84-15.74,10.89-31.16,17.35-44.59,18.68Z"/>
        </g>
        <g id="nodes">
          <circle class="cls-19" cx="260.83" cy="132.06" r="8.98"/>
          <circle class="cls-2" cx="304.87" cy="285.85" r="11.71"/>
          <circle class="cls-4" cx="238.55" cy="167.99" r="6.25"/>
          <circle class="cls-8" cx="101.01" cy="378.57" r="4.88"/>
          <circle class="cls-35" cx="41.44" cy="319.02" r="2.15"/>
          <circle class="cls-4" cx="160.1" cy="366.1" r="6.25"/>
          <circle class="cls-19" cx="277.83" cy="385.35" r="8.98"/>
          <circle class="cls-32" cx="309.85" cy="203.19" r="7.61"/>
          <circle class="cls-19" cx="127.21" cy="293.11" r="8.98"/>
          <circle class="cls-12" cx="200.41" cy="330.9" r="10.35"/>
          <circle class="cls-32" cx="222.7" cy="108.3" r="7.61"/>
          <circle class="cls-35" cx="238.59" cy="316.17" r="2.15"/>
          <circle class="cls-35" cx="107.92" cy="214.53" r="2.15"/>
          <circle class="cls-2" cx="249.75" cy="357.6" r="11.71"/>
          <circle class="cls-9" cx="157.2" cy="205.7" r="17.18"/>
          <circle class="cls-12" cx="171" cy="279.75" r="10.35"/>
          <circle class="cls-19" cx="177.15" cy="108.72" r="8.98"/>
          <circle class="cls-20" cx="259.27" cy="277.25" r="13.08"/>
          <circle class="cls-12" cx="95.05" cy="146.09" r="10.35"/>
          <circle class="cls-4" cx="351.51" cy="286.36" r="6.25"/>
          <circle class="cls-20" cx="138.13" cy="126.64" r="13.08"/>
          <circle class="cls-19" cx="31.72" cy="185.35" r="8.98"/>
          <circle class="cls-35" cx="320" cy="132.79" r="2.15"/>
          <circle class="cls-8" cx="281.43" cy="321.68" r="4.88"/>
          <circle class="cls-19" cx="85.58" cy="308.73" r="8.98"/>
          <circle class="cls-8" cx="341.37" cy="166.04" r="4.88"/>
          <circle class="cls-8" cx="355.96" cy="203.79" r="4.88"/>
          <circle class="cls-32" cx="361.3" cy="245.45" r="7.61"/>
          <circle class="cls-32" cx="204.47" cy="147.14" r="7.61"/>
          <circle class="cls-20" cx="74.55" cy="183.88" r="13.08"/>
          <circle class="cls-32" cx="292.18" cy="103.63" r="7.61"/>
          <circle class="cls-35" cx="69.73" cy="352.53" r="2.15"/>
          <circle class="cls-8" cx="233.27" cy="404.66" r="4.88"/>
          <circle class="cls-15" cx="165.24" cy="160.75" r="14.45"/>
          <circle class="cls-32" cx="64.61" cy="226.25" r="7.61"/>
          <circle class="cls-35" cx="159.42" cy="70.19" r="2.15"/>
          <circle class="cls-12" cx="258.55" cy="203.46" r="10.35"/>
          <circle class="cls-25" cx="200.9" cy="195.14" r="15.82"/>
          <circle class="cls-2" cx="124.15" cy="174.6" r="11.71"/>
          <circle class="cls-28" cx="319.31" cy="245.36" r="3.51"/>
          <circle class="cls-2" cx="229.74" cy="234.46" r="11.71"/>
          <circle class="cls-32" cx="206.81" cy="371.83" r="7.61"/>
          <circle class="cls-19" cx="206.77" cy="68.42" r="8.98"/>
          <circle class="cls-12" cx="189.6" cy="239.27" r="10.35"/>
          <circle class="cls-4" cx="50.04" cy="142.65" r="6.25"/>
          <circle class="cls-25" cx="142.75" cy="245.64" r="15.82"/>
          <circle class="cls-28" cx="334.29" cy="324.1" r="3.51"/>
          <circle class="cls-19" cx="254.08" cy="79.74" r="8.98"/>
          <circle class="cls-35" cx="82.45" cy="106.81" r="2.15"/>
          <circle class="cls-28" cx="276.62" cy="240.53" r="3.51"/>
          <circle class="cls-12" cx="120.64" cy="88.68" r="10.35"/>
          <circle class="cls-15" cx="101.85" cy="258.71" r="14.45"/>
          <circle class="cls-4" cx="62.63" cy="271" r="6.25"/>
          <circle class="cls-28" cx="161.31" cy="321.83" r="3.51"/>
          <circle class="cls-12" cx="309.07" cy="355.86" r="10.35"/>
          <circle class="cls-28" cx="23.69" cy="275.46" r="3.51"/>
          <circle class="cls-28" cx="183.74" cy="408.83" r="3.51"/>
          <circle class="cls-20" cx="213.93" cy="280.74" r="13.08"/>
          <circle class="cls-35" cx="21.24" cy="228.98" r="2.15"/>
          <circle class="cls-32" cx="119.98" cy="340.08" r="7.61"/>
          <circle class="cls-35" cx="137.61" cy="400.57" r="2.15"/>
          <circle class="cls-8" cx="288.46" cy="166.86" r="4.88"/>
        </g>
      </g>
    </g>
  </g>
</svg>